# xmcd
#
# Track frame offsets: 
#        150
#        15542
#        34967
#        50192
#        65792
#        81992
#        96017
#        114167
#        141617
#        159092
#        171917
#        187592
#
# Disc length: 2687 seconds
#
# Revision: 0
# Processed by: cddbd v1.5.2PL0 Copyright (c) Steve Scherf et al.
# Submitted via: ExactAudioCopyFreeDBPlugin 1.0
#
DISCID=9e0a7d0c
DTITLE=SES - Tronzar OS Valos
DYEAR=2015
DGENRE=Latin
TTITLE0=Sentir Sen Pensar
TTITLE1=Como Eu Canto
TTITLE2=Duos Mil Anos Máis
TTITLE3=Tronzar Os Valos
TTITLE4=Novas Ganas De Soñar
TTITLE5=Baixo O cemento
TTITLE6=Mais Que Quimera
TTITLE7=Hummanamente
TTITLE8=Opio Barato
TTITLE9=Iconoclasta
TTITLE10=Un Pensamento
TTITLE11=Un Xeito De Borrarte 
EXTD=
EXTT0=
EXTT1=
EXTT2=
EXTT3=
EXTT4=
EXTT5=
EXTT6=
EXTT7=
EXTT8=
EXTT9=
EXTT10=
EXTT11=
PLAYORDER=
